<?xml version="1.0" encoding="UTF-8"?>
<svg id="Layer_1" data-name="Layer 1" xmlns="http://www.w3.org/2000/svg" viewBox="0 0 1080 1078.98">
  <defs>
    <style>
      .cls-1 {
        fill: #fff;
      }
    </style>
  </defs>
  <rect class="cls-1" y="394.65" width="1080" height="410.03"/>
  <path d="M867.79,544.26l-72.61,39.5c-96.52,52.5-207.91,73.64-317.38,76.25C317.28,662.17,142.34,627.53,0,547.07L.18,201c.02-32.28,5.25-61.99,15.97-91.35C45.4,29.55,122.62,0,203.47,0l675.13.03c32.47,0,62.2,5.38,91.52,16.01,47.02,17.05,80.51,53.11,96.22,100.35,8.86,28.22,13.51,56.16,13.53,86.64l.13,267.5c-81.01,3.55-142.63,35.22-212.21,73.72Z"/>
  <path d="M109.84,1062.92C30.52,1034.01.33,957.64.23,878.19l-.17-133.95c127.94,36.38,257.24,62.63,390.14,49.12,91.23-8.98,176.73-37.25,258.25-78.48,46-23.27,90.73-43.49,138.15-62.96,96.9-37.37,187.84-59.55,293.4-42.74l-.18,268.85c-.02,32.29-5.52,61.81-15.84,91.36-29.67,80.02-106.43,109.6-187.47,109.59l-675.13-.04c-32.46,0-62.2-5.33-91.54-16.02Z"/>
</svg>