<svg width="120" height="21" viewBox="0 0 120 21" fill="none" xmlns="http://www.w3.org/2000/svg">
<g clip-path="url(#clip0_84_252)">
<path d="M14.48 16.5577C14.32 16.3154 14.24 16.2346 14 16.0731C13.76 15.9115 13.52 15.8308 13.2 15.8308C12.88 15.8308 12.64 15.9115 12.32 16.0731C12.08 16.1538 11.84 16.3154 11.44 16.3962C11.12 16.5577 10.72 16.7192 10.4 16.8C10 16.8808 9.52 16.9615 8.88 16.9615C8.08 16.9615 7.44 16.8 6.8 16.4769C6.16 16.1538 5.68 15.75 5.28 15.1846C4.88 14.7 4.56 14.0538 4.4 13.3269C4.16 12.6 4.08 11.8731 4.08 11.1462C4.08 10.2577 4.24 9.53077 4.4 8.80385C4.64 8.07692 4.88 7.43077 5.28 6.86539C5.76 6.38077 6.24 5.89616 6.88 5.57308C7.44 5.25 8.24 5.08846 8.96 5.08846C9.52 5.08846 10 5.16923 10.4 5.25C10.8 5.33077 11.2 5.49231 11.44 5.49231C11.68 5.65385 12 5.81539 12.32 5.81539C12.56 5.89616 12.8 5.97692 13.04 5.97692C13.52 5.97692 13.92 5.81539 14.24 5.49231C14.48 5.16923 14.64 4.68462 14.64 4.2C14.64 3.63462 14.48 3.15 14.08 2.74616C13.68 2.34231 13.2 2.01923 12.56 1.85769C12 1.61539 11.36 1.45385 10.72 1.37308C10.08 1.29231 9.52 1.21154 9.04 1.21154C7.68 1.21154 6.48 1.45385 5.36 2.01923C4.24 2.50385 3.28 3.23077 2.56 4.11923C1.68 5.00769 1.12 6.05769 0.64 7.18846C0.24 8.31923 0 9.61154 0 11.0654C0 12.4385 0.24 13.7308 0.64 14.9423C1.12 16.0731 1.68 17.1231 2.56 18.0115C3.36 18.9 4.24 19.5462 5.36 20.1115C6.48 20.5962 7.68 20.9192 9.04 20.9192C9.52 20.9192 10.16 20.8385 10.8 20.7577C11.52 20.6769 12.16 20.4346 12.72 20.2731C13.36 20.0308 13.92 19.7077 14.32 19.3846C14.72 18.9808 14.96 18.4962 14.96 17.85C14.96 17.6885 14.96 17.5269 14.88 17.2846C14.8 16.8808 14.64 16.7192 14.48 16.5577Z" fill="white"/>
<path d="M28.64 8.31923C28 7.59231 27.28 7.10769 26.48 6.70385C25.6 6.3 24.72 6.05769 23.76 6.05769C22.8 6.05769 21.84 6.3 21.04 6.70385C20.16 7.10769 19.52 7.59231 18.96 8.31923C18.32 8.96539 17.92 9.85385 17.52 10.6615C17.2 11.55 17.04 12.5192 17.04 13.4077C17.04 14.3769 17.2 15.4269 17.52 16.2346C17.76 17.1231 18.32 17.9308 18.96 18.5769C19.52 19.3038 20.24 19.7885 21.04 20.1923C21.92 20.5154 22.8 20.7577 23.76 20.7577C24.8 20.7577 25.76 20.5154 26.56 20.1923C27.36 19.7885 28.08 19.3038 28.64 18.5769C29.2 17.9308 29.68 17.1231 30.08 16.2346C30.4 15.3462 30.56 14.3769 30.56 13.4077C30.56 12.5192 30.32 11.55 30 10.6615C29.68 9.77308 29.2 8.96539 28.64 8.31923ZM26.56 14.8615C26.4 15.2654 26.24 15.6692 26 16.0731C25.76 16.3962 25.44 16.7192 25.12 16.9615C24.8 17.2038 24.24 17.2846 23.76 17.2846C23.28 17.2846 22.88 17.1231 22.4 16.9615C22.08 16.6385 21.76 16.3962 21.52 16.0731C21.28 15.75 21.12 15.2654 20.96 14.8615C20.8 14.2962 20.8 13.8923 20.8 13.4077C20.8 13.0038 20.88 12.5192 20.96 12.0346C21.12 11.6308 21.28 11.1462 21.52 10.8231C21.76 10.4192 22.08 10.0962 22.4 9.93462C22.72 9.69231 23.28 9.61154 23.76 9.61154C24.32 9.61154 24.72 9.69231 25.12 9.93462C25.52 10.1769 25.84 10.4192 26.08 10.8231C26.32 11.1462 26.48 11.6308 26.56 12.0346C26.72 12.5192 26.8 12.9231 26.8 13.4077C26.72 13.8923 26.72 14.2962 26.56 14.8615Z" fill="white"/>
<path d="M44.56 17.6885L40.16 12.5192L43.44 9.45C43.76 9.20769 43.92 8.96538 44.08 8.72308C44.16 8.48077 44.24 8.23846 44.24 7.91538C44.24 7.51154 44.08 7.02692 43.84 6.70385C43.52 6.38077 43.12 6.21923 42.64 6.21923C42.4 6.21923 42.16 6.3 41.84 6.38077C41.52 6.54231 41.2 6.70385 40.96 7.02692L36.8 11.0654V2.18077C36.8 1.53461 36.56 1.05 36.24 0.646153C36 0.323076 35.44 0.0807686 34.88 0.0807686C34.32 0.0807686 33.92 0.323076 33.52 0.646153C33.2 1.05 32.96 1.53461 32.96 2.18077V18.4962C32.96 19.1423 33.2 19.6269 33.52 19.95C33.84 20.3538 34.32 20.5962 34.88 20.5962C35.44 20.5962 35.92 20.3538 36.24 19.95C36.56 19.6269 36.8 19.0615 36.8 18.4962V13.8115L41.36 19.5462C41.68 19.95 42 20.2731 42.24 20.4346C42.48 20.6769 42.8 20.7577 43.12 20.7577C43.6 20.7577 44 20.5154 44.4 20.2731C44.72 19.95 44.88 19.4654 44.88 18.9C44.88 18.6577 44.88 18.4962 44.8 18.2538C44.8 18.0923 44.64 17.85 44.56 17.6885Z" fill="white"/>
<path d="M59.2799 14.2962C59.5999 14.0538 59.6799 13.5692 59.6799 13.0038C59.6799 12.1962 59.5199 11.4692 59.1999 10.5808C58.8799 9.69231 58.3999 9.04615 57.8399 8.31923C57.1999 7.67308 56.4799 7.10769 55.6799 6.70385C54.7999 6.3 53.9199 6.05769 52.8799 6.05769C51.9199 6.05769 50.9599 6.3 50.1599 6.70385C49.3599 7.10769 48.6399 7.59231 48.0799 8.31923C47.5199 8.96539 47.0399 9.85385 46.6399 10.6615C46.3199 11.55 46.1599 12.5192 46.1599 13.4077C46.1599 14.4577 46.3999 15.5077 46.6399 16.3962C46.9599 17.2846 47.5199 18.0115 48.0799 18.6577C48.7199 19.3038 49.4399 19.8692 50.3199 20.1923C51.1999 20.5154 52.1599 20.7577 53.1999 20.7577C53.9199 20.7577 54.6399 20.5962 55.2799 20.4346C56.0799 20.1923 56.7199 20.0308 57.2799 19.7077C57.8399 19.3846 58.3199 19.0615 58.7999 18.6577C59.1199 18.3346 59.3599 17.85 59.3599 17.4462C59.3599 17.1231 59.1199 16.6385 58.8799 16.3154C58.5599 16.0731 58.1599 15.8308 57.8399 15.8308C57.5199 15.8308 57.2799 15.9115 56.9599 16.0731C56.7199 16.2346 56.3199 16.3962 55.9999 16.5577C55.6799 16.8 55.2799 16.8808 54.8799 17.0423C54.4799 17.2846 53.9999 17.3654 53.5199 17.3654C52.6399 17.3654 51.8399 17.1231 51.1199 16.6385C50.4799 16.2346 50.0799 15.5077 49.9199 14.5385H57.9199C58.6399 14.7 59.1199 14.5385 59.2799 14.2962ZM49.9199 12.1154C49.9999 11.3077 50.2399 10.6615 50.7999 10.0154C51.3599 9.45 51.9999 9.12692 52.8799 9.12692C53.7599 9.12692 54.4799 9.45 54.9599 10.0154C55.4399 10.5 55.8399 11.2269 55.8399 12.1154H49.9199Z" fill="white"/>
<path d="M73.9199 3.15C73.2799 2.58462 72.5599 2.18077 71.6799 1.85769C70.8799 1.53462 69.9999 1.37308 68.9599 1.37308H64.2399C63.5999 1.37308 63.1199 1.61539 62.6399 1.93846C62.3199 2.34231 62.1599 2.90769 62.1599 3.55385V18.6577C62.1599 19.3846 62.3999 19.8692 62.7199 20.2731C63.0399 20.5962 63.5999 20.7577 64.1599 20.7577C64.7199 20.7577 65.1999 20.5962 65.5999 20.2731C65.9199 19.95 66.1599 19.3846 66.1599 18.6577V14.2154H69.1199C70.0799 14.2154 70.8799 14.0538 71.7599 13.8115C72.5599 13.4885 73.2799 13.0846 73.8399 12.5192C74.4799 12.0346 74.9599 11.3077 75.2799 10.5808C75.6799 9.77308 75.8399 8.88462 75.8399 7.91539C75.8399 6.86539 75.6799 6.05769 75.3599 5.25C75.0399 4.36154 74.4799 3.71538 73.9199 3.15ZM71.0399 9.77308C70.5599 10.3385 69.8399 10.6615 68.9599 10.6615H66.2399V4.92692H68.9599C69.8399 4.92692 70.5599 5.16923 71.0399 5.73462C71.4399 6.3 71.7599 6.94615 71.7599 7.75385C71.7599 8.56154 71.4399 9.20769 71.0399 9.77308Z" fill="white"/>
<path d="M88.1599 17.5269C87.9999 17.3654 87.8399 17.2038 87.5199 17.1231C87.2799 16.9615 87.0399 16.8808 86.6399 16.8808H81.9199V3.39231C81.9199 2.74615 81.6799 2.26154 81.3599 1.85769C80.9599 1.53462 80.4799 1.29231 79.9199 1.29231C79.3599 1.29231 78.8799 1.53462 78.4799 1.85769C78.0799 2.18077 77.9199 2.74615 77.9199 3.39231V18.4154C77.9199 19.1423 78.0799 19.6269 78.3999 20.1115C78.7199 20.4346 79.3599 20.6769 79.9999 20.6769H86.6399C87.1999 20.6769 87.6799 20.4346 87.9999 20.1115C88.3199 19.7885 88.4799 19.3038 88.5599 18.9C88.5599 18.6577 88.4799 18.4962 88.3999 18.2538C88.3199 18.0115 88.2399 17.7692 88.1599 17.5269Z" fill="white"/>
<path d="M101.68 3.39231C101.44 2.74615 101.12 2.18077 100.64 1.77692C100.24 1.37308 99.6001 1.13077 98.8801 1.13077C98.2401 1.13077 97.6801 1.37308 97.2001 1.77692C96.7201 2.18077 96.3201 2.74615 96.0801 3.39231L90.8001 18.0115C90.7201 18.0923 90.6401 18.1731 90.6401 18.3346C90.5601 18.4962 90.5601 18.6577 90.5601 18.9C90.5601 19.3846 90.8001 19.95 91.1201 20.2731C91.4401 20.5962 92.0001 20.7577 92.4801 20.7577C93.0401 20.7577 93.5201 20.5962 93.7601 20.3538C94.0801 20.1115 94.2401 19.7885 94.4001 19.3038L95.2001 16.8808H102.64L103.44 19.3846C103.6 19.7885 103.76 20.1115 104.08 20.4346C104.4 20.6769 104.88 20.7577 105.44 20.7577C105.92 20.7577 106.4 20.5962 106.72 20.2731C107.04 19.95 107.2 19.5462 107.2 18.9808V18.6577C107.12 18.4154 107.12 18.3346 106.96 18.0923L101.68 3.39231ZM96.2401 13.1654L98.8001 5.33077H98.8801L101.28 13.1654H96.2401Z" fill="white"/>
<path d="M119.52 1.77692C119.12 1.45385 118.64 1.21154 118.08 1.21154C117.36 1.21154 116.88 1.53462 116.4 2.1L112.64 7.67308L108.8 2.1C108.48 1.53462 107.84 1.21154 107.12 1.21154C106.56 1.21154 106.08 1.45385 105.76 1.77692C105.36 2.18077 105.2 2.66539 105.2 3.23077C105.2 3.63462 105.36 4.03846 105.52 4.36154L110.56 11.55V18.7385C110.56 19.2231 110.72 19.7077 110.96 20.1115C111.28 20.5154 111.84 20.6769 112.56 20.6769C113.28 20.6769 113.76 20.5154 114.08 20.1115C114.4 19.7077 114.56 19.2231 114.56 18.7385V11.55L119.6 4.36154C119.92 4.03846 120 3.63462 120 3.23077C120 2.66539 119.84 2.26154 119.52 1.77692Z" fill="white"/>
</g>
<defs>
<clipPath id="clip0_84_252">
<rect width="120" height="21" fill="white"/>
</clipPath>
</defs>
</svg>
