<svg width="27" height="27" viewBox="0 0 27 27" fill="none" xmlns="http://www.w3.org/2000/svg">
<path d="M18.894 20.308C16.8247 22.0506 14.2053 23.0043 11.5 23C5.149 23 0 17.851 0 11.5C0 5.149 5.149 0 11.5 0C17.851 0 23 5.149 23 11.5C23.0043 14.2053 22.0506 16.8247 20.308 18.894L26.708 25.293C26.8955 25.4806 27.0008 25.7351 27.0007 26.0004C27.0006 26.2656 26.8951 26.52 26.7075 26.7075C26.5199 26.895 26.2654 27.0003 26.0001 27.0002C25.7349 27.0001 25.4805 26.8946 25.293 26.707L18.894 20.308ZM21 11.5C21 8.98044 19.9991 6.56408 18.2175 4.78249C16.4359 3.00089 14.0196 2 11.5 2C8.98044 2 6.56408 3.00089 4.78249 4.78249C3.00089 6.56408 2 8.98044 2 11.5C2 14.0196 3.00089 16.4359 4.78249 18.2175C6.56408 19.9991 8.98044 21 11.5 21C14.0196 21 16.4359 19.9991 18.2175 18.2175C19.9991 16.4359 21 14.0196 21 11.5Z" fill="white"/>
</svg>
