<svg width="32" height="32" viewBox="0 0 32 32" fill="none" xmlns="http://www.w3.org/2000/svg">
<path d="M21.894 23.308C19.8247 25.0506 17.2053 26.0043 14.5 26C8.149 26 3 20.851 3 14.5C3 8.149 8.149 3 14.5 3C20.851 3 26 8.149 26 14.5C26.0043 17.2053 25.0506 19.8247 23.308 21.894L29.708 28.293C29.8955 28.4806 30.0008 28.7351 30.0007 29.0004C30.0006 29.2656 29.8951 29.52 29.7075 29.7075C29.5199 29.895 29.2654 30.0003 29.0001 30.0002C28.7349 30.0001 28.4805 29.8946 28.293 29.707L21.894 23.308ZM24 14.5C24 11.9804 22.9991 9.56408 21.2175 7.78249C19.4359 6.00089 17.0196 5 14.5 5C11.9804 5 9.56408 6.00089 7.78249 7.78249C6.00089 9.56408 5 11.9804 5 14.5C5 17.0196 6.00089 19.4359 7.78249 21.2175C9.56408 22.9991 11.9804 24 14.5 24C17.0196 24 19.4359 22.9991 21.2175 21.2175C22.9991 19.4359 24 17.0196 24 14.5Z" fill="white"/>
</svg>
