<?xml version="1.0" encoding="UTF-8"?>
<svg id="Layer_1" xmlns="http://www.w3.org/2000/svg" version="1.1" viewBox="0 0 1280 1024">
  <!-- Generator: Adobe Illustrator 30.1.0, SVG Export Plug-In . SVG Version: 2.1.1 Build 136)  -->
  <defs>
    <style>
      .st0 {
        fill: #fff;
      }
    </style>
  </defs>
  <path class="st0" d="M703.56,617.67c21.83-3.1,43.59-20.01,57.79-36.32,23.14-26.58,38.14-58.18,45.57-92.67,1.99-9.21,3.4-25.9-6.62-29.63-11.87-4.42-23.24,9.42-29.02,19.23-8.3,14.96-13.47,30.69-17.89,47.32-20.69,11.58-38.71,25.22-56.38,41.39,4.27-26.71,11.99-51.11,24.16-74.23,12.58-23.89,37.72-52.13,65.18-56.16,13.68-2.01,25.7,5.1,30.88,17.82,10.04,24.63-.15,58.01-10.74,81.6-9.93,22.13-23.03,41.44-38.55,60s-34.98,34.58-57.56,45.4c-30.79,14.76-64.57,16.22-88.19-11.4-10.22-11.95-16.19-25.61-17.66-41.62-6.27-68.18,43.79-155.73,83.54-209.47,23.06-31.18,47.66-59.9,75.83-86.45,24.62-23.2,92.92-81.92,124.64-45.53,18.34-8.78,37.68-11.64,53.88,2.76,6.42,5.71,11.76,12.34,16.42,19.66,8.6,13.5,17.04,26.03,26.63,39.06l-7.25,29.94c-19.23-23.16-28.35-50.03-46.74-71.07-8.66-9.9-24.02-13.41-35.07-5.4,8.65,37.81-3.38,83.7-24.85,115.36-9.46,13.94-27.57,28.17-43.01,19.05-4.21-2.49-8.55-8.3-10.23-14.66-11.39-43.11,24.27-98.4,56.91-125.48-11.22-2.5-21.25,1.16-30.01,7.53-14.1,10.27-26.19,22.48-37.84,36.13-39.19,45.91-72.98,95.81-101.21,149.27-18.96,35.9-52.97,112.33-35.46,150.55,5.93,12.95,18.72,20.01,32.84,18.01ZM885.91,266.96c-26.42,20.73-44.98,49.32-53.19,81.89-2.31,9.18-3.08,18.53-1.27,27.38,1.52,7.45,8.7,11.31,15.65,8.58,33.5-13.16,51.37-85.96,38.81-117.85Z"/>
  <path class="st0" d="M287.7,550.8c-10.05.7-12.07-27.44-12.23-35.09-1.05-49.33,13.09-113.61,40.2-155.32,4.68-7.2,16.17-21.39,24.95-16.86,16.6,8.58,2.45,63.87-1.46,80.99,9.97-3.63,16.21-11.96,21.17-20.83,11.86-21.18,26-40.14,44.72-55.7,6.76-5.62,14.31-10.28,22.62-12.26,10.64-2.54,19.75,2.74,23.15,12.97,5.93,17.89,2.18,37.59-8.69,53.13-3.61,5.16-9.17,8.66-15.36,9.5-5.13.69-9.59-2.28-10.81-7.22-3.51-14.25,8.18-33.53,25.59-31.78,1.09-4.74-.13-11.24-5.17-13.8-13.4-6.81-30.27,17.44-36.14,27.7-15.67,27.37-25.72,57.21-30.6,88.53-1.36,8.76-2.66,28.84,5.68,33.08,8.94,4.54,24.13-11.46,29.58-18.57,21.42-27.97,35.19-61.7,55.24-92.23,16.1-24.51,72.68-97.1,102.39-54.85l5.7-11.23,43.57-.46-75.4,156.52c-2,4.15-3.1,9.61-1.2,13.44,1.56,3.14,7.65,2.1,10.35.37,6.26-4.02,11.3-9.04,15.8-15.09,13.23-17.75,24.33-35.81,35.65-55.16,5.03-.39,9.54-.38,15.08.09-13.24,25.37-26.67,48.93-43.52,71.49-13.83,18.52-36.93,41-61.14,41.63-9.19.24-16.76-4.55-19.45-13.24-1.66-5.37-2.11-11.1-2.59-17.48-12.04,13.51-29.58,29.78-48.31,30.87-10.45.61-18.42-5.41-21.15-15-3.21-11.23-2.26-22.06.4-34.02-12.63,17.6-26.75,40.44-45.85,50.44-8.49,4.44-17.57,1.63-22.49-6.46-15.69-25.82-9.96-72.9.52-101.9l-13.45,3.41c-8.32,27.26-16.1,54.53-26.17,81.3-3.3,8.78-11.81,28.44-21.16,29.1ZM504.99,456.65c17.71-32.92,34.22-65.72,50.08-99.75-.06-5.89-8.4-8.45-13.14-6.17-6.88,3.32-12.47,8.28-17.58,14.28-12.25,14.39-22.15,29.78-32.23,45.95-8.47,13.58-48.83,80.64-30.58,91.09,13.42,7.68,38.02-35.28,43.46-45.39ZM334.29,363.54c-8.51,1.27-27.73,33.42-17.33,54.22,2.63,5.27,7.24,8.81,13.23,8.52,2.83-7.73,14.57-64.29,4.11-62.74ZM305.87,502.87c8.32-20.79,15.25-40.96,20.9-62.92-10.44-3.44-16.58-10.74-20.19-21.4-8.18,27.76-12.12,54.46-13.68,82.06.43,3.99,1.15,8.93,3.3,11.54,5.22-.11,6.75-5.14,9.66-9.28Z"/>
  <path class="st0" d="M1029.55,529.58c1.54,15.3-8.53,100.45-23.63,102.93-1.23.2-3.69-2.38-3.86-3.8l-2.63-21.54c-2.34,8.25-14.79,32.17-23.65,28.78-8.69-3.32-8.49-27.26-8.14-36.65-5.45,12.32-21.47,44.55-37.01,40.51-26.18-6.81-4.57-84.47-.7-103.58l-12.99,2.27c-17.72,39.02-37.02,74.24-72.34,100.04-6.34,4.63-13.15,8.15-20.53,10.12-9,2.4-17.57-1.34-21.63-9.72-8.9-18.38-4.67-44.72,1.11-64.16,14.11-47.46,44.45-99.69,84.76-129.45,6.15-4.54,13.36-7.99,20.71-9.54,9.11-1.93,17.63,2.58,20.81,11.32,7.87,21.65,1.58,49.53-5.4,72.84,3.33.78,8.02-.43,11.21-3.07l40.55-145.16c9.65-34.54,14.97-68.81,18.02-104.41.07-.87,1.18-2.82,1.66-3.46,4.96-6.6,16.56,47.69,11.88,54.92-3.72-12.59-.64-25.68-8.19-38.48,1.27,74.55-12.83,135.59-31.11,208.9,11.09-11.73,15.96-25.97,21.7-40.07,11.86-29.13,14.51-59.19,19.5-91.03,2.81,31.35-3.26,61.6-10.68,91.1-10.49,41.68-32.81,62.42-35.89,69.1-4.75,10.31-20.61,78.06-11.27,83.58,10.64,6.29,28.65-55.74,30.98-63.59l21.89-73.48c1.27-4.27,8.38-28.64,15.3-19.68l1.7,2.2c.29.38,1.3-.72,2.61-1.5,3.69,47.28-1.93,96.33-8.72,143.05-.11.76.62,2.55.75,2.98s2.1-.75,2.25-1.17c6.97-20.8,5.9-39.67,11-61.09ZM912.87,520.63c6.44-13.5,16.87-56.4-1.05-61.27-10-2.72-23.75,21.15-17.75,43.67,2.38,8.92,9.16,15.86,18.8,17.6ZM1005.18,575.29c8.45-34.09,13.53-68.47,15.48-103.66.23-4.07.58-8.78-3.04-10.95l-21.51,97.95c-1.38,6.26-6.94,34.68-1.57,36.85,4.26,1.73,9.73-16.47,10.65-20.18ZM905.72,537.64c-19.35-3.95-28.07-16.02-32.44-34.53-11.71,20.87-21.41,42.92-27.13,66.5-2.09,8.62-5.1,28.79,3.34,34.06,1.93,1.21,7.15,1.27,9.18.17,20.53-11.19,37.67-45.58,47.06-66.21Z"/>
  <path class="st0" d="M325.32,599.04c27.37-14.94,55.83-24.08,86.55-25.61,28.69-1.43,55,5.59,79.09,21.06,23.59,15.15,44.05,34.26,61.09,57.72-32.4-20.83-63.25-32.82-99.73-16.54-7.65,3.84-13.78,9.09-18.87,16.65-11.8-27.38-29.39-50.92-61.29-52.48-24.04-1.17-46.5,7.1-65.72,21.34-6.72,4.98-13.44,9.75-21.05,12.69-10.21,3.95-20.83-.49-25.62-10.18-10.27-20.75-10.77-55.98-9.78-79.73,3.25-78.13,20.89-218.72,70.27-280.98,8.84-11.14,28.94-29.06,41.81-16.18,14.11,14.13,4.76,47.73-4.3,63.92-3.6,6.43-12.71,16.1-18.08,12.48-7.11-4.79-2.08-24.58,4.23-34.4,2.83-4.41,7.42-6.26,12.03-8.79,5.07-2.79,4.07-13.52-1.91-15.2-6.53-1.83-12.8,2.02-17.78,6.17-25.03,20.89-43.65,69.09-53.08,100.32-17.84,59.09-31.41,141.33-25.13,202.59,1.05,10.21,3.44,20.04,7.52,29.26,11.05,24.9,42.85,5.12,59.75-4.11Z"/>
  <polygon class="st0" points="663.06 372.8 620.25 372.61 640.86 330.14 683.59 330.37 663.06 372.8"/>
  <path class="st0" d="M668.44,786.86l-.42-36.64-16.27,36-6.46-.04-16.12-35-.5,35.67-8.86.11.09-49.22,12.4.06,16.31,36.03,16.12-36.02,12.39-.06.07,48.54c-2.16,1.08-5.9,1.13-8.75.57Z"/>
  <path class="st0" d="M464.62,768.3c-3.56-.97-8.64-.93-13.28-.75l-.27,19.58-9.12-.14v-49.21s28.1-.1,28.1-.1c7.62-.03,13.32,5.65,14.31,12.42,1.08,7.45-2.62,14.17-10.11,16.91l13.24,19.87c-4.17.28-7.38.32-10.68.13l-12.18-18.7ZM468.91,759.23c3.68-.01,6.39-4.04,6.28-6.93s-3.04-6.34-6.38-6.36l-17.49-.11-.11,13.44,17.7-.05Z"/>
  <path class="st0" d="M756,798.94c-8.61,2.62-16.93,1.63-24.92-1.98.45-2.2,1.76-5.34,2.88-6.97,6.64,2.08,12.49,3.59,18.52,1.82,4.85-1.42,7.48-6.18,5.91-10.37-7.83,5.63-18.57,5.51-25.52-1.24-7.33-7.11-7.03-19.11-.25-26.03,6.91-7.05,18.32-7.49,25.81-1.27,1.13-4.35,5.2-4.09,9.21-2.88l.11,33.43c.02,7.17-4.37,13.24-11.73,15.48ZM758.73,767.1c0-6.09-4.94-11.02-11.02-11.02s-11.02,4.94-11.02,11.02,4.94,11.02,11.02,11.02,11.02-4.94,11.02-11.02Z"/>
  <path class="st0" d="M692.15,787.15c-5.45-1.5-8.77-6.27-8.63-11.02.43-13.71,18.47-11.54,28.1-12.28.08-3.14-2.76-6.66-6.22-7.15-5.26-.75-9.23.66-14.77,3l-4.19-6.49c7.58-4.32,15.01-5.73,22.96-3.83,5.92,1.41,10.72,6.49,10.84,12.6l.33,16.71,4.2,2.49c1.18.7.23,5.53-1.07,6.02-3.29,1.25-9.53-.89-11.53-4.52-5.33,5.54-12.56,6.54-20.03,4.48ZM711.52,770.97c-7.17-.54-17.73-1.15-19.05,4.22-.3,1.22,1.23,4.22,2.76,4.82,5.77,2.26,15.93-.44,16.3-9.04Z"/>
  <path class="st0" d="M541.5,787.26c-5.74-1.56-9.14-6.01-9.02-11.17.31-13.55,18.42-11.8,28.1-12.36.13-2.86-2.6-6.34-6.03-6.98-5.18-.97-9.56.56-14.83,2.98-1.38-1.41-3.19-4.28-4.19-6.5,7.35-4.53,14.88-5.54,22.81-3.74,6.56,1.49,10.86,6.88,10.95,13.57l.21,15.67,4.3,2.46c1.18.68.16,5.44-1.1,5.94-2.89,1.15-9.41-.34-11.34-4.34-5.37,4.98-12.27,6.52-19.86,4.46ZM560.75,770.72c-7.26-.01-18.62-.99-19.44,4.58-.15,1.04.98,3.63,1.97,4.21,3.12,1.82,8.22,1.69,11.49.06s5.09-4.31,5.98-8.85Z"/>
  <path class="st0" d="M521.31,777.01c1.92.32,4.08,3.12,5.45,5.6-5.18,4.75-11.53,5.92-18.4,5.45-11.4-.78-19.12-9.1-19.02-19.83s7.65-19.15,19.13-19.64c6.21-.26,12.39,2.02,16.32,6.55,3.69,4.25,5.34,10.72,4.16,16.43l-30.37.26c3.08,10.06,14.5,10.72,22.73,5.18ZM520.32,764.77c-2.12-7.64-7.36-8.45-12.38-8.17-4.22.24-8.56,3.21-8.85,8.34l21.23-.18Z"/>
  <path class="st0" d="M802.64,773.84c4.24,7.72,13.82,7.81,20.58,2.82,2.06.92,4.53,4.15,4.99,6.63-8.66,6.7-21.41,6.82-29.75-.49-8.06-7.06-8.44-20.21-.88-27.75,8.43-8.42,21.73-8.83,30.84-.95l-5.15,6.59c-5.39-4.73-11.05-5.1-16.2-2.36s-7.7,9.56-4.44,15.51Z"/>
  <path class="st0" d="M1000.42,356.15l1.96-33.48c3.39-.56,8.68-1.92,9.2-6.41l1.62-13.94c5.81,12.88,12.8,59.92-12.78,53.83Z"/>
  <path class="st0" d="M594.24,779.83l-.4,7.19c-5.58,2.32-14.74-.05-14.78-6.94l-.25-44.26c3.2-.14,5.79-.12,8.77.13l.17,41.68c.21,1.28,4.06,1.99,6.49,2.2Z"/>
  <rect class="st0" x="776.67" y="749.5" width="8.88" height="37.83"/>
  <path class="st0" d="M1024.52,629.07c-7.71,1-3.66-24.31,3.25-25,4.99,4.2,1.6,23.64-3.25,25Z"/>
  <circle class="st0" cx="781.18" cy="739.85" r="5.28"/>
</svg>